<mxfile host="app.diagrams.net" agent="Mozilla/5.0 (Windows NT 10.0; Win64; x64) AppleWebKit/537.36 (KHTML, like Gecko) Chrome/132.0.0.0 Safari/537.36" version="25.0.3">
  <diagram id="C5RBs43oDa-KdzZeNtuy" name="Page-1">
    <mxGraphModel dx="756" dy="444" grid="1" gridSize="10" guides="1" tooltips="1" connect="1" arrows="1" fold="1" page="1" pageScale="1" pageWidth="827" pageHeight="1169" math="0" shadow="0">
      <root>
        <mxCell id="WIyWlLk6GJQsqaUBKTNV-0" />
        <mxCell id="WIyWlLk6GJQsqaUBKTNV-1" parent="WIyWlLk6GJQsqaUBKTNV-0" />
        <mxCell id="EhIsBpT3RMYjXQ3VBc58-37" style="edgeStyle=orthogonalEdgeStyle;rounded=0;orthogonalLoop=1;jettySize=auto;html=1;exitX=0.5;exitY=1;exitDx=0;exitDy=0;entryX=0.5;entryY=0;entryDx=0;entryDy=0;" edge="1" parent="WIyWlLk6GJQsqaUBKTNV-1" source="WIyWlLk6GJQsqaUBKTNV-3" target="EhIsBpT3RMYjXQ3VBc58-36">
          <mxGeometry relative="1" as="geometry" />
        </mxCell>
        <mxCell id="WIyWlLk6GJQsqaUBKTNV-3" value="Инициализация" style="rounded=1;whiteSpace=wrap;html=1;fontSize=12;glass=0;strokeWidth=1;shadow=0;" parent="WIyWlLk6GJQsqaUBKTNV-1" vertex="1">
          <mxGeometry x="160" y="32" width="120" height="40" as="geometry" />
        </mxCell>
        <mxCell id="EhIsBpT3RMYjXQ3VBc58-29" style="edgeStyle=orthogonalEdgeStyle;rounded=0;orthogonalLoop=1;jettySize=auto;html=1;exitX=0.5;exitY=1;exitDx=0;exitDy=0;" edge="1" parent="WIyWlLk6GJQsqaUBKTNV-1" source="EhIsBpT3RMYjXQ3VBc58-2" target="EhIsBpT3RMYjXQ3VBc58-3">
          <mxGeometry relative="1" as="geometry" />
        </mxCell>
        <mxCell id="EhIsBpT3RMYjXQ3VBc58-2" value="&lt;div&gt;&lt;span style=&quot;background-color: initial;&quot;&gt;Обновление массива и суммы&lt;/span&gt;&lt;/div&gt;" style="rounded=1;whiteSpace=wrap;html=1;" vertex="1" parent="WIyWlLk6GJQsqaUBKTNV-1">
          <mxGeometry x="160" y="170" width="120" height="40" as="geometry" />
        </mxCell>
        <mxCell id="EhIsBpT3RMYjXQ3VBc58-12" style="edgeStyle=orthogonalEdgeStyle;rounded=0;orthogonalLoop=1;jettySize=auto;html=1;exitX=1;exitY=0.5;exitDx=0;exitDy=0;entryX=0.5;entryY=0;entryDx=0;entryDy=0;" edge="1" parent="WIyWlLk6GJQsqaUBKTNV-1" source="EhIsBpT3RMYjXQ3VBc58-3" target="EhIsBpT3RMYjXQ3VBc58-5">
          <mxGeometry relative="1" as="geometry" />
        </mxCell>
        <mxCell id="EhIsBpT3RMYjXQ3VBc58-14" style="edgeStyle=orthogonalEdgeStyle;rounded=0;orthogonalLoop=1;jettySize=auto;html=1;exitX=0;exitY=0.5;exitDx=0;exitDy=0;entryX=0.5;entryY=0;entryDx=0;entryDy=0;" edge="1" parent="WIyWlLk6GJQsqaUBKTNV-1" source="EhIsBpT3RMYjXQ3VBc58-3" target="EhIsBpT3RMYjXQ3VBc58-7">
          <mxGeometry relative="1" as="geometry" />
        </mxCell>
        <mxCell id="EhIsBpT3RMYjXQ3VBc58-3" value="&lt;div&gt;&lt;span style=&quot;background-color: initial;&quot;&gt;Если&amp;nbsp;&lt;/span&gt;&lt;/div&gt;&lt;div&gt;currentIndex &amp;lt; N&lt;/div&gt;" style="rhombus;whiteSpace=wrap;html=1;" vertex="1" parent="WIyWlLk6GJQsqaUBKTNV-1">
          <mxGeometry x="165" y="250" width="110" height="100" as="geometry" />
        </mxCell>
        <mxCell id="EhIsBpT3RMYjXQ3VBc58-16" style="edgeStyle=orthogonalEdgeStyle;rounded=0;orthogonalLoop=1;jettySize=auto;html=1;exitX=0.5;exitY=1;exitDx=0;exitDy=0;" edge="1" parent="WIyWlLk6GJQsqaUBKTNV-1" source="EhIsBpT3RMYjXQ3VBc58-5" target="EhIsBpT3RMYjXQ3VBc58-15">
          <mxGeometry relative="1" as="geometry" />
        </mxCell>
        <mxCell id="EhIsBpT3RMYjXQ3VBc58-5" value="Добавить distance в distances[currentIndex]&lt;div&gt;Обновить sum: sum += distance&lt;/div&gt;" style="rounded=1;whiteSpace=wrap;html=1;" vertex="1" parent="WIyWlLk6GJQsqaUBKTNV-1">
          <mxGeometry x="255" y="380" width="140" height="61" as="geometry" />
        </mxCell>
        <mxCell id="EhIsBpT3RMYjXQ3VBc58-17" style="edgeStyle=orthogonalEdgeStyle;rounded=0;orthogonalLoop=1;jettySize=auto;html=1;exitX=0.5;exitY=1;exitDx=0;exitDy=0;" edge="1" parent="WIyWlLk6GJQsqaUBKTNV-1" source="EhIsBpT3RMYjXQ3VBc58-7" target="EhIsBpT3RMYjXQ3VBc58-15">
          <mxGeometry relative="1" as="geometry" />
        </mxCell>
        <mxCell id="EhIsBpT3RMYjXQ3VBc58-7" value="&lt;div&gt;Вычислить индекс для старого значения&lt;/div&gt;&lt;div&gt;Вычесть старое значение из суммы&lt;/div&gt;&lt;div&gt;Заменить старое значение новым&lt;/div&gt;&lt;div&gt;Обновить сумму&lt;/div&gt;" style="rounded=1;whiteSpace=wrap;html=1;" vertex="1" parent="WIyWlLk6GJQsqaUBKTNV-1">
          <mxGeometry x="60" y="360" width="132" height="110" as="geometry" />
        </mxCell>
        <mxCell id="EhIsBpT3RMYjXQ3VBc58-19" style="edgeStyle=orthogonalEdgeStyle;rounded=0;orthogonalLoop=1;jettySize=auto;html=1;exitX=0.5;exitY=1;exitDx=0;exitDy=0;" edge="1" parent="WIyWlLk6GJQsqaUBKTNV-1" source="EhIsBpT3RMYjXQ3VBc58-15" target="EhIsBpT3RMYjXQ3VBc58-18">
          <mxGeometry relative="1" as="geometry" />
        </mxCell>
        <mxCell id="EhIsBpT3RMYjXQ3VBc58-15" value="Обновление индекса" style="rounded=1;whiteSpace=wrap;html=1;" vertex="1" parent="WIyWlLk6GJQsqaUBKTNV-1">
          <mxGeometry x="183" y="510" width="120" height="60" as="geometry" />
        </mxCell>
        <mxCell id="EhIsBpT3RMYjXQ3VBc58-23" style="edgeStyle=orthogonalEdgeStyle;rounded=0;orthogonalLoop=1;jettySize=auto;html=1;exitX=1;exitY=0.5;exitDx=0;exitDy=0;entryX=0.5;entryY=0;entryDx=0;entryDy=0;" edge="1" parent="WIyWlLk6GJQsqaUBKTNV-1" source="EhIsBpT3RMYjXQ3VBc58-18" target="EhIsBpT3RMYjXQ3VBc58-21">
          <mxGeometry relative="1" as="geometry" />
        </mxCell>
        <mxCell id="EhIsBpT3RMYjXQ3VBc58-28" style="edgeStyle=orthogonalEdgeStyle;rounded=0;orthogonalLoop=1;jettySize=auto;html=1;exitX=0;exitY=0.5;exitDx=0;exitDy=0;entryX=0.5;entryY=0;entryDx=0;entryDy=0;" edge="1" parent="WIyWlLk6GJQsqaUBKTNV-1" source="EhIsBpT3RMYjXQ3VBc58-18" target="EhIsBpT3RMYjXQ3VBc58-22">
          <mxGeometry relative="1" as="geometry" />
        </mxCell>
        <mxCell id="EhIsBpT3RMYjXQ3VBc58-18" value="Если&amp;nbsp;&lt;div&gt;currentIndex &amp;lt; N&lt;/div&gt;" style="rhombus;whiteSpace=wrap;html=1;" vertex="1" parent="WIyWlLk6GJQsqaUBKTNV-1">
          <mxGeometry x="178" y="610" width="130" height="100" as="geometry" />
        </mxCell>
        <mxCell id="EhIsBpT3RMYjXQ3VBc58-32" style="edgeStyle=orthogonalEdgeStyle;rounded=0;orthogonalLoop=1;jettySize=auto;html=1;exitX=0.5;exitY=1;exitDx=0;exitDy=0;entryX=0.5;entryY=0;entryDx=0;entryDy=0;" edge="1" parent="WIyWlLk6GJQsqaUBKTNV-1" source="EhIsBpT3RMYjXQ3VBc58-21" target="EhIsBpT3RMYjXQ3VBc58-30">
          <mxGeometry relative="1" as="geometry" />
        </mxCell>
        <mxCell id="EhIsBpT3RMYjXQ3VBc58-21" value="averageDistance = sum / currentIndex" style="rounded=1;whiteSpace=wrap;html=1;" vertex="1" parent="WIyWlLk6GJQsqaUBKTNV-1">
          <mxGeometry x="340" y="690" width="120" height="60" as="geometry" />
        </mxCell>
        <mxCell id="EhIsBpT3RMYjXQ3VBc58-31" style="edgeStyle=orthogonalEdgeStyle;rounded=0;orthogonalLoop=1;jettySize=auto;html=1;exitX=0.5;exitY=1;exitDx=0;exitDy=0;" edge="1" parent="WIyWlLk6GJQsqaUBKTNV-1" source="EhIsBpT3RMYjXQ3VBc58-22" target="EhIsBpT3RMYjXQ3VBc58-30">
          <mxGeometry relative="1" as="geometry" />
        </mxCell>
        <mxCell id="EhIsBpT3RMYjXQ3VBc58-22" value="averageDistance = sum / N" style="rounded=1;whiteSpace=wrap;html=1;" vertex="1" parent="WIyWlLk6GJQsqaUBKTNV-1">
          <mxGeometry x="30" y="690" width="120" height="60" as="geometry" />
        </mxCell>
        <mxCell id="EhIsBpT3RMYjXQ3VBc58-24" value="Да" style="text;html=1;align=center;verticalAlign=middle;whiteSpace=wrap;rounded=0;" vertex="1" parent="WIyWlLk6GJQsqaUBKTNV-1">
          <mxGeometry x="310" y="630" width="60" height="30" as="geometry" />
        </mxCell>
        <mxCell id="EhIsBpT3RMYjXQ3VBc58-25" value="Да" style="text;html=1;align=center;verticalAlign=middle;whiteSpace=wrap;rounded=0;" vertex="1" parent="WIyWlLk6GJQsqaUBKTNV-1">
          <mxGeometry x="270" y="270" width="60" height="30" as="geometry" />
        </mxCell>
        <mxCell id="EhIsBpT3RMYjXQ3VBc58-26" value="Нет&lt;span style=&quot;color: rgba(0, 0, 0, 0); font-family: monospace; font-size: 0px; text-align: start; text-wrap-mode: nowrap;&quot;&gt;%3CmxGraphModel%3E%3Croot%3E%3CmxCell%20id%3D%220%22%2F%3E%3CmxCell%20id%3D%221%22%20parent%3D%220%22%2F%3E%3CmxCell%20id%3D%222%22%20value%3D%22%D0%94%D0%B0%22%20style%3D%22text%3Bhtml%3D1%3Balign%3Dcenter%3BverticalAlign%3Dmiddle%3BwhiteSpace%3Dwrap%3Brounded%3D0%3B%22%20vertex%3D%221%22%20parent%3D%221%22%3E%3CmxGeometry%20x%3D%22270%22%20y%3D%22270%22%20width%3D%2260%22%20height%3D%2230%22%20as%3D%22geometry%22%2F%3E%3C%2FmxCell%3E%3C%2Froot%3E%3C%2FmxGraphModel%3E&lt;/span&gt;" style="text;html=1;align=center;verticalAlign=middle;whiteSpace=wrap;rounded=0;" vertex="1" parent="WIyWlLk6GJQsqaUBKTNV-1">
          <mxGeometry x="110" y="270" width="60" height="30" as="geometry" />
        </mxCell>
        <mxCell id="EhIsBpT3RMYjXQ3VBc58-27" value="Нет" style="text;html=1;align=center;verticalAlign=middle;whiteSpace=wrap;rounded=0;" vertex="1" parent="WIyWlLk6GJQsqaUBKTNV-1">
          <mxGeometry x="100" y="634" width="60" height="30" as="geometry" />
        </mxCell>
        <mxCell id="EhIsBpT3RMYjXQ3VBc58-33" style="edgeStyle=orthogonalEdgeStyle;rounded=0;orthogonalLoop=1;jettySize=auto;html=1;exitX=1;exitY=0.5;exitDx=0;exitDy=0;entryX=1;entryY=0.25;entryDx=0;entryDy=0;" edge="1" parent="WIyWlLk6GJQsqaUBKTNV-1" source="EhIsBpT3RMYjXQ3VBc58-30" target="EhIsBpT3RMYjXQ3VBc58-2">
          <mxGeometry relative="1" as="geometry">
            <Array as="points">
              <mxPoint x="500" y="810" />
              <mxPoint x="500" y="180" />
            </Array>
          </mxGeometry>
        </mxCell>
        <mxCell id="EhIsBpT3RMYjXQ3VBc58-35" style="edgeStyle=orthogonalEdgeStyle;rounded=0;orthogonalLoop=1;jettySize=auto;html=1;exitX=0.5;exitY=1;exitDx=0;exitDy=0;entryX=0.5;entryY=0;entryDx=0;entryDy=0;" edge="1" parent="WIyWlLk6GJQsqaUBKTNV-1" source="EhIsBpT3RMYjXQ3VBc58-30" target="EhIsBpT3RMYjXQ3VBc58-34">
          <mxGeometry relative="1" as="geometry" />
        </mxCell>
        <mxCell id="EhIsBpT3RMYjXQ3VBc58-30" value="Использование усредненного значения" style="rounded=1;whiteSpace=wrap;html=1;" vertex="1" parent="WIyWlLk6GJQsqaUBKTNV-1">
          <mxGeometry x="186" y="780" width="120" height="60" as="geometry" />
        </mxCell>
        <mxCell id="EhIsBpT3RMYjXQ3VBc58-34" value="Конец" style="rounded=1;whiteSpace=wrap;html=1;" vertex="1" parent="WIyWlLk6GJQsqaUBKTNV-1">
          <mxGeometry x="186" y="870" width="120" height="60" as="geometry" />
        </mxCell>
        <mxCell id="EhIsBpT3RMYjXQ3VBc58-38" style="edgeStyle=orthogonalEdgeStyle;rounded=0;orthogonalLoop=1;jettySize=auto;html=1;exitX=0.5;exitY=1;exitDx=0;exitDy=0;entryX=0.5;entryY=0;entryDx=0;entryDy=0;" edge="1" parent="WIyWlLk6GJQsqaUBKTNV-1" source="EhIsBpT3RMYjXQ3VBc58-36" target="EhIsBpT3RMYjXQ3VBc58-2">
          <mxGeometry relative="1" as="geometry" />
        </mxCell>
        <mxCell id="EhIsBpT3RMYjXQ3VBc58-36" value="Считывание расстояния" style="rounded=1;whiteSpace=wrap;html=1;" vertex="1" parent="WIyWlLk6GJQsqaUBKTNV-1">
          <mxGeometry x="162.5" y="100" width="115" height="40" as="geometry" />
        </mxCell>
      </root>
    </mxGraphModel>
  </diagram>
</mxfile>
